<svg xmlns="http://www.w3.org/2000/svg" viewBox="0 0 19 19" fill="currentColor"><g><path d="M6.8,14.3c0,0.8,0.1,1.5,0.4,2.1c0,0.1,0.1,0.1,0,0.2c0,0.1-0.1,0.2-0.1,0.3c-0.1,0-0.2,0-0.3,0c-0.1-0.1-0.3-0.3-0.4-0.5C6,15.6,5.8,14.8,5.7,14c-0.2-1.2-0.2-2.4,0.2-3.6C6.3,9,7.2,8,8.5,7.4c1.1-0.4,2.3-0.5,3.4,0c0.8,0.3,1.2,0.9,1.2,1.8c0,0.4-0.2,0.8-0.5,1.1c-0.5,0.6-1.2,0.8-2,0.9c-0.6,0.1-1.3,0-1.9-0.2c-0.5-0.2-1.1,0-1.4,0.4c-0.4,0.6-0.6,1.3-0.7,2C6.8,13.7,6.8,14,6.8,14.3z"/><path d="M6.4,8.4C6.3,6.6,6.5,4.9,7.8,3.6c0.9-1,2-1.5,3.3-1.4c0.7,0.1,1.3,0.3,1.8,0.8c0.9,0.8,0.8,1.9-0.2,2.7C11.8,6.3,10.8,6.5,9.8,6C9.1,5.7,8.5,5.9,8.2,6.6C8,6.9,7.9,7,7.7,7.2c-0.4,0.3-0.8,0.6-1.1,1C6.6,8.2,6.5,8.3,6.4,8.4z"/></g><circle fill="none" stroke="currentColor" stroke-width="0.5" stroke-miterlimit="10" cx="9.5" cy="9.5" r="9"/></svg>