<svg xmlns="http://www.w3.org/2000/svg" viewBox="0 0 93 70" fill="currentColor"><circle cx="10" cy="35" r="7"/><circle cx="59" cy="10" r="7"/><circle cx="83" cy="35" r="7"/><circle cx="35" cy="59" r="7"/><circle cx="10" cy="60" r="10"/><circle cx="83" cy="10" r="10"/><polygon points="2.2,0.3 2.2,19.4 17.5,19.4 17.5,15.7 6.6,15.7 6.6,0.3"/><polygon points="51,51 51,69.2 65.6,69.2 65.6,65.7 55.2,65.7 55.2,51"/><path d="M34.1,0c-5.4,0-9.7,4.3-9.7,9.7s4.3,9.7,9.7,9.7s9.7-4.3,9.7-9.7S39.5,0,34.1,0z M34.1,15c-2.9,0-5.3-2.4-5.3-5.3s2.4-5.3,5.3-5.3s5.3,2.4,5.3,5.3S37,15,34.1,15z"/><path d="M25.5,35.6c-0.1-3.3,1.8-10.3,9.8-10.3s6.9,4.3,5.7,5.2c-1.2,0.9-2.3-0.8-5.2-0.8c-5.1,0-6.2,3.3-6.3,6c-0.1,2.6,1,5.7,5.8,5.7c3,0,3.4-1.5,5.3-1.8c1.1-0.1,2.2,3.5-0.3,4.3C37.9,44.7,25.8,48.4,25.5,35.6z"/><path d="M63.7,25.7v1.8h-0.2c-0.9-2.6-15.2-4.3-14.8,7.7c0.1,1.8,0.4,9.5,9.8,9.5c2.6,0,5.1-2,5.1-2v1.9h4.7V25.7H63.7z M63.7,38.7c-0.5,0.7-3.2,2.6-5.1,2.6c-3.3,0-6-2.7-6-6c0-3.3,2.3-6.3,5.6-6.3c2,0,5.3,1.9,5.6,2.9C63.7,38.8,63.7,31.9,63.7,38.7z"/><path d="M83.3,50.2c-4.1,0-7.3,2.2-7.3,6.5c0,4.1,10.6,4.9,11.4,7.3c0.4,1.1-2,1.8-3.7,1.9c-2,0.2-3.7-0.3-5.3-1.9s-2.4,0.8-2.4,2.4c0,1.6,4.1,3.3,8.1,3.3c4.1,0,7.3-4.1,7.3-6.5c0-4.9-11.4-5.7-11.4-7.3c0-1.6,1.1-2.1,3.3-2.1s3.5,0.7,4.3,1.5s2.2-0.2,2.2-2.6C89.8,50.2,83.3,50.2,83.3,50.2L83.3,50.2z"/></svg>