<svg xmlns="http://www.w3.org/2000/svg" viewBox="0 0 103.3 103.3" fill="currentColor"><g><g><g><path d="M53.2,14.1c-0.3-0.5-0.6-1-1-1.5c-0.4-0.4-1.1-0.4-1.5,0c-0.4,0.4-0.4,1.1,0,1.5c0.2,0.3,0.5,0.6,0.6,1c0.2,0.4,0.6,0.6,1,0.6c0.1,0,0.3-0.1,0.4-0.1C53.3,15.3,53.5,14.6,53.2,14.1z"/><path d="M84.2,65.8c-0.6-5.5-7.7-11.5-12-14.7c-1.4-1-1.6-3-0.6-4.4c0.1-0.1,0.2-0.3,0.4-0.4c4.2-4,11.7-11.8,14-15.9c2.2-4.3,3.4-9.1,3.4-13.9c-2.9-3.1-6.2-5.9-9.8-8.2c-3.5,1.7-4.4,7.1-5.9,13.3c-2.1,8.5-7,7.5-9,7.5s-0.8-3-5.5-16.3c-4.7-13.3-16.7-10-25.9-4.5c-11.7,7-6.5,21.9-3.6,31.5c-1.6,1.6-7.8,2.8-13.4,5.8c-7,3.7-14.1,9.8-15.9,12.5c0.5,3.8,1.3,7.4,2.6,11c0.4,0.4,0.9,0.7,1.4,1c3.3,1.5,8.1-1.1,12.7-5.8c1.4-1.4,2.9-2.5,4.6-3.5c3.7-2.4,7.6-4.2,11.8-5.5c0,0,4.5,6.9,8.7,15.1s-4.5,10.9-5.5,10.9s-14.6-1.3-11.5,10.3c3,11.5,19.7,7.4,28.2,1.8c8.5-5.6,6.4-23.9,6.4-23.9c8.3-1.3,10.9,7.5,11.7,12c0.8,4.5-1,12.3,7.4,12.5c1.2,0,2.4-0.2,3.5-0.5c3.2-2.4,6.2-5.1,8.7-8.2c0.3-0.4,0.4-0.9,0.5-1.4C91.1,83.1,85,73.6,84.2,65.8z M57.9,23.5c-0.7,2.5-3.2,4.1-8.5,6.1c-8.5,3.2-12.6-1-13.1-8.6c0-0.5,0-1,0-1.5c0.4-7.4,7.5-9.3,7.5-9.3c9-3,11.4,1.3,13.5,7.7C58,20.2,58.3,22,57.9,23.5z"/><path d="M54,18.4c-0.6,0.2-0.9,0.8-0.7,1.4c0.5,0.9,0.6,2,0.3,3c-0.1,0.6,0.3,1.2,0.9,1.3h0.2c0.5,0,1-0.4,1.1-0.9c0.3-1.4,0.2-2.9-0.4-4.2C55,18.5,54.5,18.3,54,18.4z"/></g><path d="M53.2,14.1c-0.3-0.5-0.6-1-1-1.5c-0.4-0.4-1.1-0.4-1.5,0c-0.4,0.4-0.4,1.1,0,1.5c0.2,0.3,0.5,0.6,0.6,1c0.2,0.4,0.6,0.6,1,0.6c0.1,0,0.3-0.1,0.4-0.1C53.3,15.3,53.5,14.6,53.2,14.1z"/><path d="M54,18.4c-0.6,0.2-0.9,0.8-0.7,1.4c0.5,0.9,0.6,2,0.3,3c-0.1,0.6,0.3,1.2,0.9,1.3h0.2c0.5,0,1-0.4,1.1-0.9c0.3-1.4,0.2-2.9-0.4-4.2C55,18.5,54.5,18.3,54,18.4z"/></g></g></svg>